<mxfile host="app.diagrams.net" modified="2021-01-16T19:40:23.048Z" agent="5.0 (Windows NT 6.3; Win64; x64) AppleWebKit/537.36 (KHTML, like Gecko) Chrome/87.0.4280.141 Safari/537.36" etag="qJiZxz1ZI7XR2NVm6psU" version="14.2.4" type="github">
  <diagram id="fEWZB5T_Xkg65_PU7XJZ" name="Page-1">
    <mxGraphModel dx="1108" dy="450" grid="1" gridSize="10" guides="1" tooltips="1" connect="1" arrows="1" fold="1" page="1" pageScale="1" pageWidth="850" pageHeight="1100" math="0" shadow="0">
      <root>
        <mxCell id="0" />
        <mxCell id="1" parent="0" />
        <mxCell id="KkJ_TuLorG1xZhDRaCZ--3" value="&lt;h2&gt;&lt;b&gt;&lt;font face=&quot;Georgia&quot;&gt;movies&lt;/font&gt;&lt;/b&gt;&lt;/h2&gt;" style="whiteSpace=wrap;html=1;align=center;fillColor=#dae8fc;strokeColor=#6c8ebf;gradientColor=#7ea6e0;" parent="1" vertex="1">
          <mxGeometry x="590" y="400" width="100" height="40" as="geometry" />
        </mxCell>
        <mxCell id="KkJ_TuLorG1xZhDRaCZ--6" value="&lt;h2&gt;&lt;b&gt;&lt;font face=&quot;Georgia&quot;&gt;profile&lt;/font&gt;&lt;/b&gt;&lt;/h2&gt;&lt;span style=&quot;color: rgba(0 , 0 , 0 , 0) ; font-family: monospace ; font-size: 0px&quot;&gt;%3CmxGraphModel%3E%3Croot%3E%3CmxCell%20id%3D%220%22%2F%3E%3CmxCell%20id%3D%221%22%20parent%3D%220%22%2F%3E%3CmxCell%20id%3D%222%22%20value%3D%22%26lt%3Bh2%26gt%3B%26lt%3Bb%26gt%3B%26lt%3Bfont%20face%3D%26quot%3BGeorgia%26quot%3B%26gt%3Bmovies%26lt%3B%2Ffont%26gt%3B%26lt%3B%2Fb%26gt%3B%26lt%3B%2Fh2%26gt%3B%22%20style%3D%22whiteSpace%3Dwrap%3Bhtml%3D1%3Balign%3Dcenter%3BfillColor%3D%23dae8fc%3BstrokeColor%3D%236c8ebf%3BgradientColor%3D%237ea6e0%3B%22%20vertex%3D%221%22%20parent%3D%221%22%3E%3CmxGeometry%20x%3D%22370%22%20y%3D%22210%22%20width%3D%22100%22%20height%3D%2240%22%20as%3D%22geometry%22%2F%3E%3C%2FmxCell%3E%3C%2Froot%3E%3C%2FmxGraphModel%3E&lt;/span&gt;" style="whiteSpace=wrap;html=1;align=center;fillColor=#dae8fc;strokeColor=#6c8ebf;gradientColor=#7ea6e0;" parent="1" vertex="1">
          <mxGeometry x="205" y="400" width="100" height="40" as="geometry" />
        </mxCell>
        <mxCell id="KkJ_TuLorG1xZhDRaCZ--8" value="&lt;h2&gt;&lt;b&gt;&lt;font face=&quot;Georgia&quot;&gt;department&lt;/font&gt;&lt;/b&gt;&lt;/h2&gt;" style="whiteSpace=wrap;html=1;align=center;fillColor=#dae8fc;strokeColor=#6c8ebf;gradientColor=#7ea6e0;" parent="1" vertex="1">
          <mxGeometry x="550" y="120" width="130" height="40" as="geometry" />
        </mxCell>
        <mxCell id="KkJ_TuLorG1xZhDRaCZ--9" value="&lt;h2&gt;&lt;b&gt;&lt;font face=&quot;Georgia&quot;&gt;locations&lt;/font&gt;&lt;/b&gt;&lt;/h2&gt;" style="whiteSpace=wrap;html=1;align=center;fillColor=#dae8fc;strokeColor=#6c8ebf;gradientColor=#7ea6e0;" parent="1" vertex="1">
          <mxGeometry x="270" y="530" width="110" height="40" as="geometry" />
        </mxCell>
        <mxCell id="KkJ_TuLorG1xZhDRaCZ--10" value="&lt;h2&gt;&lt;font face=&quot;Georgia&quot;&gt;movie_crew&lt;/font&gt;&lt;/h2&gt;" style="whiteSpace=wrap;html=1;align=center;fillColor=#dae8fc;strokeColor=#6c8ebf;gradientColor=#7ea6e0;" parent="1" vertex="1">
          <mxGeometry x="180" y="120" width="130" height="40" as="geometry" />
        </mxCell>
        <mxCell id="KkJ_TuLorG1xZhDRaCZ--11" value="&lt;b&gt;&lt;font face=&quot;Georgia&quot;&gt;profile_id&lt;/font&gt;&lt;/b&gt;" style="ellipse;whiteSpace=wrap;html=1;align=center;fontStyle=4;fillColor=#fff2cc;strokeColor=#d6b656;gradientColor=#ffd966;" parent="1" vertex="1">
          <mxGeometry x="50" y="210" width="90" height="40" as="geometry" />
        </mxCell>
        <mxCell id="KkJ_TuLorG1xZhDRaCZ--12" value="&lt;b&gt;&lt;font face=&quot;Georgia&quot;&gt;crew_id&lt;/font&gt;&lt;/b&gt;" style="ellipse;whiteSpace=wrap;html=1;align=center;fontStyle=4;fillColor=#fff2cc;strokeColor=#d6b656;gradientColor=#ffd966;" parent="1" vertex="1">
          <mxGeometry x="140" y="60" width="100" height="40" as="geometry" />
        </mxCell>
        <mxCell id="KkJ_TuLorG1xZhDRaCZ--13" value="&lt;div style=&quot;direction: rtl&quot;&gt;&lt;b&gt;&lt;font face=&quot;Georgia&quot;&gt;movie_id&lt;/font&gt;&lt;/b&gt;&lt;/div&gt;" style="ellipse;whiteSpace=wrap;html=1;align=center;fontStyle=4;fillColor=#fff2cc;strokeColor=#d6b656;gradientColor=#ffd966;" parent="1" vertex="1">
          <mxGeometry x="720" y="190" width="100" height="40" as="geometry" />
        </mxCell>
        <mxCell id="KkJ_TuLorG1xZhDRaCZ--14" value="&lt;b&gt;&lt;font face=&quot;Georgia&quot;&gt;location_id&lt;/font&gt;&lt;/b&gt;" style="ellipse;whiteSpace=wrap;html=1;align=center;fontStyle=4;fillColor=#fff2cc;strokeColor=#d6b656;gradientColor=#ffd966;" parent="1" vertex="1">
          <mxGeometry x="205" y="580" width="100" height="40" as="geometry" />
        </mxCell>
        <mxCell id="KkJ_TuLorG1xZhDRaCZ--15" value="&lt;b&gt;&lt;font face=&quot;Georgia&quot;&gt;role&lt;/font&gt;&lt;/b&gt;" style="ellipse;whiteSpace=wrap;html=1;align=center;fontStyle=4;fillColor=#fff2cc;strokeColor=#d6b656;gradientColor=#ffd966;" parent="1" vertex="1">
          <mxGeometry x="430" y="60" width="100" height="40" as="geometry" />
        </mxCell>
        <mxCell id="KkJ_TuLorG1xZhDRaCZ--16" value="&lt;b&gt;&lt;font face=&quot;Georgia&quot;&gt;name&lt;/font&gt;&lt;/b&gt;" style="ellipse;whiteSpace=wrap;html=1;align=center;fillColor=#fff2cc;strokeColor=#d6b656;gradientColor=#ffd966;" parent="1" vertex="1">
          <mxGeometry x="60" y="260" width="70" height="40" as="geometry" />
        </mxCell>
        <mxCell id="KkJ_TuLorG1xZhDRaCZ--17" value="&lt;b&gt;&lt;font face=&quot;Georgia&quot;&gt;poster_link&lt;/font&gt;&lt;/b&gt;" style="ellipse;whiteSpace=wrap;html=1;align=center;fillColor=#fff2cc;strokeColor=#d6b656;gradientColor=#ffd966;" parent="1" vertex="1">
          <mxGeometry x="710" y="480" width="120" height="40" as="geometry" />
        </mxCell>
        <mxCell id="KkJ_TuLorG1xZhDRaCZ--18" value="&lt;b&gt;&lt;font face=&quot;Georgia&quot;&gt;language&lt;/font&gt;&lt;/b&gt;" style="ellipse;whiteSpace=wrap;html=1;align=center;fillColor=#fff2cc;strokeColor=#d6b656;gradientColor=#ffd966;" parent="1" vertex="1">
          <mxGeometry x="720" y="430" width="100" height="40" as="geometry" />
        </mxCell>
        <mxCell id="KkJ_TuLorG1xZhDRaCZ--19" value="&lt;b&gt;&lt;font face=&quot;Georgia&quot;&gt;runtime&lt;/font&gt;&lt;/b&gt;" style="ellipse;whiteSpace=wrap;html=1;align=center;fillColor=#fff2cc;strokeColor=#d6b656;gradientColor=#ffd966;" parent="1" vertex="1">
          <mxGeometry x="720" y="385" width="100" height="40" as="geometry" />
        </mxCell>
        <mxCell id="KkJ_TuLorG1xZhDRaCZ--20" value="&lt;b&gt;&lt;font face=&quot;Georgia&quot;&gt;revenue&lt;/font&gt;&lt;/b&gt;" style="ellipse;whiteSpace=wrap;html=1;align=center;fillColor=#fff2cc;strokeColor=#d6b656;gradientColor=#ffd966;" parent="1" vertex="1">
          <mxGeometry x="720" y="340" width="100" height="40" as="geometry" />
        </mxCell>
        <mxCell id="KkJ_TuLorG1xZhDRaCZ--21" value="&lt;b&gt;&lt;font face=&quot;Georgia&quot;&gt;budget&lt;/font&gt;&lt;/b&gt;" style="ellipse;whiteSpace=wrap;html=1;align=center;fillColor=#fff2cc;strokeColor=#d6b656;gradientColor=#ffd966;" parent="1" vertex="1">
          <mxGeometry x="720" y="290" width="100" height="40" as="geometry" />
        </mxCell>
        <mxCell id="KkJ_TuLorG1xZhDRaCZ--22" value="&lt;b&gt;&lt;font face=&quot;Georgia&quot;&gt;title&lt;/font&gt;&lt;/b&gt;" style="ellipse;whiteSpace=wrap;html=1;align=center;fillColor=#fff2cc;strokeColor=#d6b656;gradientColor=#ffd966;" parent="1" vertex="1">
          <mxGeometry x="720" y="240" width="100" height="40" as="geometry" />
        </mxCell>
        <mxCell id="KkJ_TuLorG1xZhDRaCZ--23" value="&lt;b&gt;&lt;font face=&quot;Georgia&quot;&gt;country&lt;/font&gt;&lt;/b&gt;" style="ellipse;whiteSpace=wrap;html=1;align=center;fillColor=#fff2cc;strokeColor=#d6b656;gradientColor=#ffd966;" parent="1" vertex="1">
          <mxGeometry x="320" y="580" width="100" height="40" as="geometry" />
        </mxCell>
        <mxCell id="KkJ_TuLorG1xZhDRaCZ--25" value="&lt;b&gt;&lt;font face=&quot;Georgia&quot;&gt;release_year&lt;/font&gt;&lt;/b&gt;" style="ellipse;whiteSpace=wrap;html=1;align=center;fillColor=#fff2cc;strokeColor=#d6b656;gradientColor=#ffd966;" parent="1" vertex="1">
          <mxGeometry x="720" y="525" width="100" height="40" as="geometry" />
        </mxCell>
        <mxCell id="KkJ_TuLorG1xZhDRaCZ--27" value="&lt;b&gt;&lt;font face=&quot;Georgia&quot;&gt;department&lt;/font&gt;&lt;/b&gt;" style="ellipse;whiteSpace=wrap;html=1;align=center;fillColor=#fff2cc;strokeColor=#d6b656;gradientColor=#ffd966;" parent="1" vertex="1">
          <mxGeometry x="550" y="60" width="100" height="40" as="geometry" />
        </mxCell>
        <mxCell id="KkJ_TuLorG1xZhDRaCZ--28" value="&lt;b&gt;&lt;font face=&quot;Georgia&quot;&gt;biography&lt;/font&gt;&lt;/b&gt;" style="ellipse;whiteSpace=wrap;html=1;align=center;fillColor=#fff2cc;strokeColor=#d6b656;gradientColor=#ffd966;" parent="1" vertex="1">
          <mxGeometry x="45" y="360" width="95" height="40" as="geometry" />
        </mxCell>
        <mxCell id="KkJ_TuLorG1xZhDRaCZ--29" value="&lt;b&gt;&lt;font face=&quot;Georgia&quot;&gt;photo_link&lt;/font&gt;&lt;/b&gt;" style="ellipse;whiteSpace=wrap;html=1;align=center;fillColor=#fff2cc;strokeColor=#d6b656;gradientColor=#ffd966;" parent="1" vertex="1">
          <mxGeometry x="42.5" y="560" width="100" height="40" as="geometry" />
        </mxCell>
        <mxCell id="KkJ_TuLorG1xZhDRaCZ--30" value="&lt;b&gt;&lt;font face=&quot;Georgia&quot;&gt;popularity&lt;/font&gt;&lt;/b&gt;" style="ellipse;whiteSpace=wrap;html=1;align=center;fillColor=#fff2cc;strokeColor=#d6b656;gradientColor=#ffd966;" parent="1" vertex="1">
          <mxGeometry x="50" y="410" width="100" height="40" as="geometry" />
        </mxCell>
        <mxCell id="KkJ_TuLorG1xZhDRaCZ--31" value="&lt;b&gt;&lt;font face=&quot;Georgia&quot;&gt;main_department&lt;/font&gt;&lt;/b&gt;" style="ellipse;whiteSpace=wrap;html=1;align=center;fillColor=#fff2cc;strokeColor=#d6b656;gradientColor=#ffd966;" parent="1" vertex="1">
          <mxGeometry x="30" y="310" width="140" height="40" as="geometry" />
        </mxCell>
        <mxCell id="KkJ_TuLorG1xZhDRaCZ--32" value="&lt;font face=&quot;Georgia&quot;&gt;&lt;b&gt;age&lt;/b&gt;&lt;/font&gt;" style="ellipse;whiteSpace=wrap;html=1;align=center;fillColor=#fff2cc;strokeColor=#d6b656;gradientColor=#ffd966;" parent="1" vertex="1">
          <mxGeometry x="70" y="460" width="50" height="40" as="geometry" />
        </mxCell>
        <mxCell id="KkJ_TuLorG1xZhDRaCZ--33" value="&lt;b&gt;&lt;font face=&quot;Georgia&quot;&gt;gender&lt;/font&gt;&lt;/b&gt;" style="ellipse;whiteSpace=wrap;html=1;align=center;fillColor=#fff2cc;strokeColor=#d6b656;gradientColor=#ffd966;" parent="1" vertex="1">
          <mxGeometry x="57.5" y="510" width="75" height="40" as="geometry" />
        </mxCell>
        <mxCell id="KkJ_TuLorG1xZhDRaCZ--35" value="&lt;b&gt;&lt;font face=&quot;Georgia&quot;&gt;overview&lt;/font&gt;&lt;/b&gt;" style="ellipse;whiteSpace=wrap;html=1;align=center;fillColor=#fff2cc;strokeColor=#d6b656;gradientColor=#ffd966;" parent="1" vertex="1">
          <mxGeometry x="720" y="570" width="100" height="40" as="geometry" />
        </mxCell>
        <mxCell id="KkJ_TuLorG1xZhDRaCZ--36" value="&lt;b&gt;&lt;font face=&quot;Georgia&quot;&gt;job_description&lt;/font&gt;&lt;/b&gt;" style="ellipse;whiteSpace=wrap;html=1;align=center;fillColor=#fff2cc;strokeColor=#d6b656;gradientColor=#ffd966;" parent="1" vertex="1">
          <mxGeometry x="670" y="60" width="120" height="40" as="geometry" />
        </mxCell>
        <mxCell id="KkJ_TuLorG1xZhDRaCZ--37" value="&lt;font face=&quot;Georgia&quot;&gt;&lt;b&gt;worked_as&lt;/b&gt;&lt;/font&gt;" style="shape=rhombus;perimeter=rhombusPerimeter;whiteSpace=wrap;html=1;align=center;fillColor=#d5e8d4;strokeColor=#82b366;gradientColor=#97d077;" parent="1" vertex="1">
          <mxGeometry x="360" y="105" width="120" height="70" as="geometry" />
        </mxCell>
        <mxCell id="KkJ_TuLorG1xZhDRaCZ--38" value="&lt;font face=&quot;Georgia&quot;&gt;&lt;b&gt;made&lt;/b&gt;&lt;/font&gt;" style="shape=rhombus;perimeter=rhombusPerimeter;whiteSpace=wrap;html=1;align=center;fillColor=#d5e8d4;strokeColor=#82b366;gradientColor=#97d077;" parent="1" vertex="1">
          <mxGeometry x="410" y="270" width="120" height="70" as="geometry" />
        </mxCell>
        <mxCell id="KkJ_TuLorG1xZhDRaCZ--39" value="&lt;font face=&quot;Georgia&quot;&gt;&lt;b&gt;did&lt;/b&gt;&lt;/font&gt;" style="shape=rhombus;perimeter=rhombusPerimeter;whiteSpace=wrap;html=1;align=center;gradientColor=#97d077;fillColor=#d5e8d4;strokeColor=#82b366;" parent="1" vertex="1">
          <mxGeometry x="185" y="240" width="120" height="70" as="geometry" />
        </mxCell>
        <mxCell id="KkJ_TuLorG1xZhDRaCZ--40" value="&lt;font face=&quot;Georgia&quot;&gt;&lt;b&gt;filmed&amp;nbsp; in&lt;/b&gt;&lt;/font&gt;" style="shape=rhombus;perimeter=rhombusPerimeter;whiteSpace=wrap;html=1;align=center;fillColor=#d5e8d4;strokeColor=#82b366;gradientColor=#97d077;" parent="1" vertex="1">
          <mxGeometry x="380" y="425" width="120" height="70" as="geometry" />
        </mxCell>
        <mxCell id="KkJ_TuLorG1xZhDRaCZ--45" value="" style="endArrow=none;html=1;rounded=0;" parent="1" target="KkJ_TuLorG1xZhDRaCZ--6" edge="1">
          <mxGeometry relative="1" as="geometry">
            <mxPoint x="140" y="229" as="sourcePoint" />
            <mxPoint x="300" y="229" as="targetPoint" />
          </mxGeometry>
        </mxCell>
        <mxCell id="KkJ_TuLorG1xZhDRaCZ--47" value="" style="endArrow=none;html=1;rounded=0;exitX=0.986;exitY=0.325;exitDx=0;exitDy=0;exitPerimeter=0;" parent="1" source="KkJ_TuLorG1xZhDRaCZ--16" target="KkJ_TuLorG1xZhDRaCZ--6" edge="1">
          <mxGeometry relative="1" as="geometry">
            <mxPoint x="130" y="279.5" as="sourcePoint" />
            <mxPoint x="210" y="280" as="targetPoint" />
            <Array as="points" />
          </mxGeometry>
        </mxCell>
        <mxCell id="KkJ_TuLorG1xZhDRaCZ--48" value="" style="endArrow=none;html=1;rounded=0;exitX=0.5;exitY=1;exitDx=0;exitDy=0;" parent="1" source="KkJ_TuLorG1xZhDRaCZ--9" target="KkJ_TuLorG1xZhDRaCZ--23" edge="1">
          <mxGeometry relative="1" as="geometry">
            <mxPoint x="300" y="619" as="sourcePoint" />
            <mxPoint x="460" y="619" as="targetPoint" />
          </mxGeometry>
        </mxCell>
        <mxCell id="KkJ_TuLorG1xZhDRaCZ--49" value="" style="endArrow=none;html=1;rounded=0;" parent="1" edge="1">
          <mxGeometry relative="1" as="geometry">
            <mxPoint x="677" y="402" as="sourcePoint" />
            <mxPoint x="720" y="259.5" as="targetPoint" />
          </mxGeometry>
        </mxCell>
        <mxCell id="KkJ_TuLorG1xZhDRaCZ--50" value="" style="endArrow=none;html=1;rounded=0;exitX=0.75;exitY=0;exitDx=0;exitDy=0;entryX=0;entryY=0.5;entryDx=0;entryDy=0;" parent="1" source="KkJ_TuLorG1xZhDRaCZ--3" target="KkJ_TuLorG1xZhDRaCZ--13" edge="1">
          <mxGeometry relative="1" as="geometry">
            <mxPoint x="570" y="210" as="sourcePoint" />
            <mxPoint x="730" y="210" as="targetPoint" />
          </mxGeometry>
        </mxCell>
        <mxCell id="KkJ_TuLorG1xZhDRaCZ--51" value="" style="endArrow=none;html=1;rounded=0;exitX=0.69;exitY=0;exitDx=0;exitDy=0;exitPerimeter=0;entryX=0.5;entryY=1;entryDx=0;entryDy=0;" parent="1" source="KkJ_TuLorG1xZhDRaCZ--14" target="KkJ_TuLorG1xZhDRaCZ--9" edge="1">
          <mxGeometry relative="1" as="geometry">
            <mxPoint x="250" y="600" as="sourcePoint" />
            <mxPoint x="410" y="600" as="targetPoint" />
          </mxGeometry>
        </mxCell>
        <mxCell id="KkJ_TuLorG1xZhDRaCZ--52" value="" style="endArrow=none;html=1;rounded=0;exitX=0.61;exitY=1.025;exitDx=0;exitDy=0;exitPerimeter=0;" parent="1" source="KkJ_TuLorG1xZhDRaCZ--3" edge="1">
          <mxGeometry relative="1" as="geometry">
            <mxPoint x="670" y="370.5" as="sourcePoint" />
            <mxPoint x="730" y="580" as="targetPoint" />
          </mxGeometry>
        </mxCell>
        <mxCell id="KkJ_TuLorG1xZhDRaCZ--53" value="" style="endArrow=none;html=1;rounded=0;" parent="1" target="KkJ_TuLorG1xZhDRaCZ--6" edge="1">
          <mxGeometry relative="1" as="geometry">
            <mxPoint x="140" y="570" as="sourcePoint" />
            <mxPoint x="290" y="580" as="targetPoint" />
          </mxGeometry>
        </mxCell>
        <mxCell id="KkJ_TuLorG1xZhDRaCZ--54" value="" style="endArrow=none;html=1;rounded=0;exitX=0.993;exitY=0.225;exitDx=0;exitDy=0;exitPerimeter=0;" parent="1" source="KkJ_TuLorG1xZhDRaCZ--33" target="KkJ_TuLorG1xZhDRaCZ--6" edge="1">
          <mxGeometry relative="1" as="geometry">
            <mxPoint x="120" y="529.5" as="sourcePoint" />
            <mxPoint x="280" y="529.5" as="targetPoint" />
          </mxGeometry>
        </mxCell>
        <mxCell id="KkJ_TuLorG1xZhDRaCZ--55" value="" style="endArrow=none;html=1;rounded=0;entryX=0;entryY=1;entryDx=0;entryDy=0;" parent="1" target="KkJ_TuLorG1xZhDRaCZ--6" edge="1">
          <mxGeometry relative="1" as="geometry">
            <mxPoint x="120" y="475" as="sourcePoint" />
            <mxPoint x="280" y="475" as="targetPoint" />
          </mxGeometry>
        </mxCell>
        <mxCell id="KkJ_TuLorG1xZhDRaCZ--56" value="" style="endArrow=none;html=1;rounded=0;" parent="1" target="KkJ_TuLorG1xZhDRaCZ--6" edge="1">
          <mxGeometry relative="1" as="geometry">
            <mxPoint x="150" y="430" as="sourcePoint" />
            <mxPoint x="190" y="420" as="targetPoint" />
          </mxGeometry>
        </mxCell>
        <mxCell id="KkJ_TuLorG1xZhDRaCZ--57" value="" style="endArrow=none;html=1;rounded=0;entryX=0;entryY=0;entryDx=0;entryDy=0;" parent="1" target="KkJ_TuLorG1xZhDRaCZ--6" edge="1">
          <mxGeometry relative="1" as="geometry">
            <mxPoint x="130" y="390" as="sourcePoint" />
            <mxPoint x="290" y="390" as="targetPoint" />
          </mxGeometry>
        </mxCell>
        <mxCell id="KkJ_TuLorG1xZhDRaCZ--58" value="" style="endArrow=none;html=1;rounded=0;exitX=1;exitY=1;exitDx=0;exitDy=0;" parent="1" source="KkJ_TuLorG1xZhDRaCZ--31" target="KkJ_TuLorG1xZhDRaCZ--6" edge="1">
          <mxGeometry relative="1" as="geometry">
            <mxPoint x="165" y="340" as="sourcePoint" />
            <mxPoint x="325" y="330" as="targetPoint" />
          </mxGeometry>
        </mxCell>
        <mxCell id="KkJ_TuLorG1xZhDRaCZ--60" value="" style="endArrow=none;html=1;rounded=0;exitX=1;exitY=0.25;exitDx=0;exitDy=0;" parent="1" source="KkJ_TuLorG1xZhDRaCZ--3" edge="1">
          <mxGeometry relative="1" as="geometry">
            <mxPoint x="560" y="309.5" as="sourcePoint" />
            <mxPoint x="720" y="309.5" as="targetPoint" />
          </mxGeometry>
        </mxCell>
        <mxCell id="KkJ_TuLorG1xZhDRaCZ--61" value="" style="endArrow=none;html=1;rounded=0;exitX=0.69;exitY=1;exitDx=0;exitDy=0;exitPerimeter=0;entryX=0;entryY=0.5;entryDx=0;entryDy=0;" parent="1" source="KkJ_TuLorG1xZhDRaCZ--3" target="KkJ_TuLorG1xZhDRaCZ--25" edge="1">
          <mxGeometry relative="1" as="geometry">
            <mxPoint x="570" y="599" as="sourcePoint" />
            <mxPoint x="730" y="599" as="targetPoint" />
          </mxGeometry>
        </mxCell>
        <mxCell id="KkJ_TuLorG1xZhDRaCZ--62" value="" style="endArrow=none;html=1;rounded=0;exitX=0.75;exitY=1;exitDx=0;exitDy=0;" parent="1" source="KkJ_TuLorG1xZhDRaCZ--3" target="KkJ_TuLorG1xZhDRaCZ--17" edge="1">
          <mxGeometry relative="1" as="geometry">
            <mxPoint x="560" y="549" as="sourcePoint" />
            <mxPoint x="720" y="549" as="targetPoint" />
          </mxGeometry>
        </mxCell>
        <mxCell id="KkJ_TuLorG1xZhDRaCZ--63" value="" style="endArrow=none;html=1;rounded=0;exitX=0.89;exitY=1.05;exitDx=0;exitDy=0;exitPerimeter=0;entryX=0;entryY=0.5;entryDx=0;entryDy=0;" parent="1" source="KkJ_TuLorG1xZhDRaCZ--3" target="KkJ_TuLorG1xZhDRaCZ--18" edge="1">
          <mxGeometry relative="1" as="geometry">
            <mxPoint x="560" y="509" as="sourcePoint" />
            <mxPoint x="720" y="509" as="targetPoint" />
          </mxGeometry>
        </mxCell>
        <mxCell id="KkJ_TuLorG1xZhDRaCZ--64" value="" style="endArrow=none;html=1;rounded=0;exitX=1;exitY=1;exitDx=0;exitDy=0;entryX=0;entryY=0.5;entryDx=0;entryDy=0;" parent="1" source="KkJ_TuLorG1xZhDRaCZ--3" target="KkJ_TuLorG1xZhDRaCZ--19" edge="1">
          <mxGeometry relative="1" as="geometry">
            <mxPoint x="560" y="460" as="sourcePoint" />
            <mxPoint x="720" y="460" as="targetPoint" />
          </mxGeometry>
        </mxCell>
        <mxCell id="KkJ_TuLorG1xZhDRaCZ--65" value="" style="endArrow=none;html=1;rounded=0;exitX=1;exitY=0.5;exitDx=0;exitDy=0;entryX=0;entryY=0.5;entryDx=0;entryDy=0;" parent="1" source="KkJ_TuLorG1xZhDRaCZ--3" target="KkJ_TuLorG1xZhDRaCZ--20" edge="1">
          <mxGeometry relative="1" as="geometry">
            <mxPoint x="580" y="409.5" as="sourcePoint" />
            <mxPoint x="740" y="409.5" as="targetPoint" />
          </mxGeometry>
        </mxCell>
        <mxCell id="KkJ_TuLorG1xZhDRaCZ--66" value="" style="endArrow=none;html=1;rounded=0;exitX=0.669;exitY=0.025;exitDx=0;exitDy=0;exitPerimeter=0;entryX=0.5;entryY=1;entryDx=0;entryDy=0;" parent="1" source="KkJ_TuLorG1xZhDRaCZ--8" target="KkJ_TuLorG1xZhDRaCZ--36" edge="1">
          <mxGeometry relative="1" as="geometry">
            <mxPoint x="590" y="100" as="sourcePoint" />
            <mxPoint x="750" y="100" as="targetPoint" />
          </mxGeometry>
        </mxCell>
        <mxCell id="KkJ_TuLorG1xZhDRaCZ--68" value="" style="endArrow=none;html=1;rounded=0;entryX=0.5;entryY=0;entryDx=0;entryDy=0;exitX=0;exitY=1;exitDx=0;exitDy=0;" parent="1" source="KkJ_TuLorG1xZhDRaCZ--27" target="KkJ_TuLorG1xZhDRaCZ--8" edge="1">
          <mxGeometry relative="1" as="geometry">
            <mxPoint x="550" y="99" as="sourcePoint" />
            <mxPoint x="710" y="99" as="targetPoint" />
          </mxGeometry>
        </mxCell>
        <mxCell id="KkJ_TuLorG1xZhDRaCZ--69" value="" style="endArrow=none;html=1;rounded=0;entryX=0.25;entryY=0;entryDx=0;entryDy=0;" parent="1" target="KkJ_TuLorG1xZhDRaCZ--10" edge="1">
          <mxGeometry relative="1" as="geometry">
            <mxPoint x="180" y="99" as="sourcePoint" />
            <mxPoint x="340" y="99" as="targetPoint" />
          </mxGeometry>
        </mxCell>
        <mxCell id="KkJ_TuLorG1xZhDRaCZ--70" value="" style="endArrow=none;html=1;rounded=0;entryX=0.085;entryY=0.025;entryDx=0;entryDy=0;entryPerimeter=0;" parent="1" source="KkJ_TuLorG1xZhDRaCZ--15" target="KkJ_TuLorG1xZhDRaCZ--8" edge="1">
          <mxGeometry relative="1" as="geometry">
            <mxPoint x="390" y="99" as="sourcePoint" />
            <mxPoint x="550" y="99" as="targetPoint" />
          </mxGeometry>
        </mxCell>
        <mxCell id="KkJ_TuLorG1xZhDRaCZ--71" value="" style="endArrow=classic;html=1;entryX=1;entryY=0.5;entryDx=0;entryDy=0;exitX=0;exitY=0.5;exitDx=0;exitDy=0;" parent="1" source="KkJ_TuLorG1xZhDRaCZ--37" target="KkJ_TuLorG1xZhDRaCZ--10" edge="1">
          <mxGeometry width="50" height="50" relative="1" as="geometry">
            <mxPoint x="360" y="140" as="sourcePoint" />
            <mxPoint x="450" y="220" as="targetPoint" />
          </mxGeometry>
        </mxCell>
        <mxCell id="KkJ_TuLorG1xZhDRaCZ--73" value="" style="endArrow=none;html=1;entryX=0;entryY=0.5;entryDx=0;entryDy=0;exitX=1;exitY=0.5;exitDx=0;exitDy=0;" parent="1" source="KkJ_TuLorG1xZhDRaCZ--37" target="KkJ_TuLorG1xZhDRaCZ--8" edge="1">
          <mxGeometry width="50" height="50" relative="1" as="geometry">
            <mxPoint x="400" y="270" as="sourcePoint" />
            <mxPoint x="450" y="220" as="targetPoint" />
          </mxGeometry>
        </mxCell>
        <mxCell id="KkJ_TuLorG1xZhDRaCZ--74" value="" style="endArrow=none;html=1;entryX=0;entryY=0;entryDx=0;entryDy=0;" parent="1" source="KkJ_TuLorG1xZhDRaCZ--38" target="KkJ_TuLorG1xZhDRaCZ--3" edge="1">
          <mxGeometry width="50" height="50" relative="1" as="geometry">
            <mxPoint x="400" y="410" as="sourcePoint" />
            <mxPoint x="450" y="360" as="targetPoint" />
          </mxGeometry>
        </mxCell>
        <mxCell id="KkJ_TuLorG1xZhDRaCZ--75" value="" style="endArrow=none;html=1;entryX=0;entryY=0;entryDx=0;entryDy=0;" parent="1" target="KkJ_TuLorG1xZhDRaCZ--38" edge="1">
          <mxGeometry width="50" height="50" relative="1" as="geometry">
            <mxPoint x="310" y="160" as="sourcePoint" />
            <mxPoint x="450" y="360" as="targetPoint" />
            <Array as="points">
              <mxPoint x="310" y="160" />
            </Array>
          </mxGeometry>
        </mxCell>
        <mxCell id="KkJ_TuLorG1xZhDRaCZ--76" value="" style="endArrow=classic;html=1;exitX=0.5;exitY=0;exitDx=0;exitDy=0;" parent="1" source="KkJ_TuLorG1xZhDRaCZ--39" edge="1">
          <mxGeometry width="50" height="50" relative="1" as="geometry">
            <mxPoint x="195" y="210" as="sourcePoint" />
            <mxPoint x="245" y="160" as="targetPoint" />
          </mxGeometry>
        </mxCell>
        <mxCell id="KkJ_TuLorG1xZhDRaCZ--79" value="" style="endArrow=none;html=1;entryX=0.5;entryY=1;entryDx=0;entryDy=0;exitX=0.5;exitY=0;exitDx=0;exitDy=0;" parent="1" source="KkJ_TuLorG1xZhDRaCZ--6" target="KkJ_TuLorG1xZhDRaCZ--39" edge="1">
          <mxGeometry width="50" height="50" relative="1" as="geometry">
            <mxPoint x="235" y="400" as="sourcePoint" />
            <mxPoint x="285" y="350" as="targetPoint" />
          </mxGeometry>
        </mxCell>
        <mxCell id="KkJ_TuLorG1xZhDRaCZ--80" value="" style="endArrow=classic;html=1;entryX=1;entryY=0;entryDx=0;entryDy=0;" parent="1" source="KkJ_TuLorG1xZhDRaCZ--40" target="KkJ_TuLorG1xZhDRaCZ--9" edge="1">
          <mxGeometry width="50" height="50" relative="1" as="geometry">
            <mxPoint x="400" y="540" as="sourcePoint" />
            <mxPoint x="450" y="490" as="targetPoint" />
          </mxGeometry>
        </mxCell>
        <mxCell id="KkJ_TuLorG1xZhDRaCZ--81" value="" style="endArrow=none;html=1;exitX=1;exitY=0;exitDx=0;exitDy=0;" parent="1" source="KkJ_TuLorG1xZhDRaCZ--40" edge="1">
          <mxGeometry width="50" height="50" relative="1" as="geometry">
            <mxPoint x="550" y="490" as="sourcePoint" />
            <mxPoint x="600" y="440" as="targetPoint" />
          </mxGeometry>
        </mxCell>
        <mxCell id="Ku8yADDSSTX6hfADMVIk-1" value="&lt;h2&gt;&lt;b&gt;&lt;font face=&quot;Georgia&quot;&gt;genres&lt;/font&gt;&lt;/b&gt;&lt;/h2&gt;" style="whiteSpace=wrap;html=1;align=center;fillColor=#dae8fc;strokeColor=#6c8ebf;gradientColor=#7ea6e0;" parent="1" vertex="1">
          <mxGeometry x="510" y="600" width="110" height="40" as="geometry" />
        </mxCell>
        <mxCell id="Ku8yADDSSTX6hfADMVIk-2" value="&lt;b&gt;&lt;font face=&quot;Georgia&quot;&gt;genre_id&lt;/font&gt;&lt;/b&gt;" style="ellipse;whiteSpace=wrap;html=1;align=center;fontStyle=4;fillColor=#fff2cc;strokeColor=#d6b656;gradientColor=#ffd966;" parent="1" vertex="1">
          <mxGeometry x="440" y="660" width="100" height="40" as="geometry" />
        </mxCell>
        <mxCell id="Ku8yADDSSTX6hfADMVIk-3" value="&lt;b&gt;&lt;font face=&quot;Georgia&quot;&gt;genre&lt;/font&gt;&lt;/b&gt;" style="ellipse;whiteSpace=wrap;html=1;align=center;fillColor=#fff2cc;strokeColor=#d6b656;gradientColor=#ffd966;" parent="1" vertex="1">
          <mxGeometry x="560" y="660" width="100" height="40" as="geometry" />
        </mxCell>
        <mxCell id="Ku8yADDSSTX6hfADMVIk-5" value="" style="endArrow=none;html=1;rounded=0;exitX=0.5;exitY=0;exitDx=0;exitDy=0;entryX=0.75;entryY=1;entryDx=0;entryDy=0;" parent="1" source="Ku8yADDSSTX6hfADMVIk-3" target="Ku8yADDSSTX6hfADMVIk-1" edge="1">
          <mxGeometry relative="1" as="geometry">
            <mxPoint x="550" y="590" as="sourcePoint" />
            <mxPoint x="601" y="580" as="targetPoint" />
          </mxGeometry>
        </mxCell>
        <mxCell id="Ku8yADDSSTX6hfADMVIk-6" value="" style="endArrow=none;html=1;rounded=0;exitX=0.63;exitY=0.05;exitDx=0;exitDy=0;exitPerimeter=0;entryX=0.25;entryY=1;entryDx=0;entryDy=0;" parent="1" source="Ku8yADDSSTX6hfADMVIk-2" target="Ku8yADDSSTX6hfADMVIk-1" edge="1">
          <mxGeometry relative="1" as="geometry">
            <mxPoint x="490" y="590" as="sourcePoint" />
            <mxPoint x="541" y="580" as="targetPoint" />
          </mxGeometry>
        </mxCell>
        <mxCell id="Ku8yADDSSTX6hfADMVIk-7" value="&lt;font face=&quot;Georgia&quot;&gt;&lt;b&gt;is of genre&lt;/b&gt;&lt;/font&gt;" style="shape=rhombus;perimeter=rhombusPerimeter;whiteSpace=wrap;html=1;align=center;fillColor=#d5e8d4;strokeColor=#82b366;gradientColor=#97d077;" parent="1" vertex="1">
          <mxGeometry x="520" y="495" width="120" height="70" as="geometry" />
        </mxCell>
        <mxCell id="Ku8yADDSSTX6hfADMVIk-8" value="" style="endArrow=classic;html=1;exitX=0.5;exitY=1;exitDx=0;exitDy=0;" parent="1" source="Ku8yADDSSTX6hfADMVIk-7" target="Ku8yADDSSTX6hfADMVIk-1" edge="1">
          <mxGeometry width="50" height="50" relative="1" as="geometry">
            <mxPoint x="575" y="560" as="sourcePoint" />
            <mxPoint x="535" y="570" as="targetPoint" />
          </mxGeometry>
        </mxCell>
        <mxCell id="Ku8yADDSSTX6hfADMVIk-9" value="" style="endArrow=none;html=1;" parent="1" source="Ku8yADDSSTX6hfADMVIk-7" edge="1">
          <mxGeometry width="50" height="50" relative="1" as="geometry">
            <mxPoint x="500" y="442.5" as="sourcePoint" />
            <mxPoint x="630" y="440" as="targetPoint" />
          </mxGeometry>
        </mxCell>
      </root>
    </mxGraphModel>
  </diagram>
</mxfile>
